<svg width="500" height="500" viewBox="0 0 500 500" fill="none" xmlns="http://www.w3.org/2000/svg">
<rect width="500" height="500" rx="56" fill="#FFDDE7"/>
<g clip-path="url(#clip0_156_170)">
<path d="M239.18 242.995C233.39 227.855 227.9 204.615 214.07 203.925C208.66 203.655 203.25 205.405 200.36 210.395C197.47 215.385 196.76 221.475 196.38 227.825L196.41 348.575H139.42V226.825C140.7 195.795 150.75 166.605 181.2 156.165C195.25 151.345 209.98 150.285 224.7 152.575C243.13 155.445 257.93 166.285 267.37 182.075L280.68 208.725L295.81 252.345L306.24 155.725L360.57 155.675L339.94 348.465L270.56 348.485L239.17 242.995H239.18Z" fill="#F64998"/>
</g>
<defs>
<clipPath id="clip0_156_170">
<rect width="221.16" height="197.17" fill="white" transform="translate(139.42 151.415)"/>
</clipPath>
</defs>
</svg>
